<svg xmlns="http://www.w3.org/2000/svg" width="108.802" height="108.653" viewBox="0 0 108.802 108.653"><path d="M295.119,159.165V119.037h-9.762v-4.565H275.6v-4.76H262.648v4.76h-9.76v15.68h3.186V117.658h6.575v22.206h3.186c0-24.239,0,29.423,0-26.966h6.576c0,56.5,0,2.7,0,26.966h3.186V117.658h6.553v22.206h3.186V122.223h6.6V158.3l-5.136,8.8v7.271H256.074v-8.1L241.054,148.21l7.077-5.884,4.756,5.72v4.49h3.186v-19.2h-3.186v9.724l-4.344-5.223L236.567,147.8l16.32,19.625v6.95h-1.676v20.763l40.709-.072v-20.69h-1.937v-6.409Zm-25.146,18.393v14.357l-6.491.011V177.558Zm3.186,0h6.491V191.9l-6.491.011Zm-18.762,0h5.9v14.374l-5.9.01Zm34.337,14.324-5.9.01V177.558h5.9Z" transform="translate(-186.317 -86.483)"/><path d="M364.559,329.512h20.494V332.7H364.559Z" transform="translate(-287.122 -259.595)"/><path d="M42.232,58.06l16.32-19.623-11.976-9.96L42.232,33.7V21.788H39.046V43.174h3.186v-4.49l4.756-5.72,7.077,5.886L39.046,56.908v8.1H8.32V57.741l-5.134-8.8V12.861h6.6V30.5h3.186V8.3h6.553V30.5h3.186c0-24.094,0,29.309,0-26.964h6.574c0,51.253,0,10.533,0,26.964H32.47V8.3h6.575V18.6h3.186V5.112H32.469V.352H19.523v4.76H9.76V9.675H0V49.805l5.134,8.8v6.407H3.2V85.7l40.709.072V65.011H42.232ZM21.96,68.2V82.548l-6.491-.011V68.2Zm3.186,0h6.491V82.566l-6.491-.011Zm-18.761,0h5.9V82.531l-5.9-.01ZM40.721,82.581l-5.9-.01V68.2h5.9Z" transform="translate(0 -0.352)"/><path d="M49.058,179.616H69.552V182.8H49.058Z" transform="translate(-38.637 -141.538)"/><path d="M51.176,220.145H71.67v3.186H51.176Z" transform="translate(-40.306 -173.458)"/><path d="M387.171,292.169h-7.749v-3.186h7.749Zm-10.936,0h-3.186v-3.186h3.186Zm-6.372,0h-3.186v-3.186h3.186Z" transform="translate(-288.79 -227.674)"/></svg>