<svg xmlns="http://www.w3.org/2000/svg" width="94.307" height="108.549" viewBox="0 0 94.307 108.549"><path d="M116.774,38.735h11.058V25.6h-5.455V20.888l-2.814-3.066h-6.657l-2.815,3.066V25.6h-4.548V20.888l-2.814-3.066H96.072l-2.815,3.066V25.6h-4.01V15.984H86.061V25.6H75.3V5.423l2.053-2.237h6.659l2.053,2.237V12.8h3.186V4.182L85.408,0H75.949L72.11,4.182V25.6H68.1V20.888l-2.815-3.066H58.628l-2.814,3.066V25.6H51.266V20.888l-2.815-3.066H41.794L38.98,20.888V25.6H33.525v13.14H44.534l27.576,23.6v5.32h-16.3V83.72H59V70.839H72.11V92.788H59V86.906H55.814v9.068h16.3v12.575H89.247V95.975h16.3V67.653h-16.3V62.291ZM89.247,58.1V38.735h22.627Zm24.03-35.969,1.029-1.12h3.856l1.029,1.121V25.6h-5.914Zm-16.834,0,1.029-1.12h3.856l1.029,1.121V25.6H96.443ZM59,22.129l1.029-1.121h3.856l1.029,1.12V25.6H59Zm-16.834,0,1.029-1.121h3.856l1.029,1.12V25.6H42.166Zm82.479,6.653v6.767H36.711V28.782ZM49.435,38.735H72.11v19.4Zm52.922,32.1V92.788H89.247V70.839Zm-16.3,34.523H75.3V38.735H86.061Z" transform="translate(-33.525 0)"/><path d="M251.2,293.563h-3.186V272.6H251.2Zm0-24.145h-3.186v-3.186H251.2Zm0-6.372h-3.186v-3.186H251.2Z" transform="translate(-202.455 -204.662)"/></svg>