<svg xmlns="http://www.w3.org/2000/svg" width="100.441" height="108.649" viewBox="0 0 100.441 108.649"><path d="M119.761,0H74.14l-4.6,5.832L64.941,0H19.32V10.361h4.453v4.12L26.864,17.3H52.3L55.4,14.481v-4.12h3.527l5.429,6.393V63.307l-6.211,7.6V88.54h3.186v-16.5l5.794-7.091h4.84l5.794,7.091V98.489H61.327V91.726H58.141v6.8h-3.7v10.121H84.638V98.528h-3.7V70.909l-6.211-7.6V35.662H71.544V61.767H67.537V15.584L60.4,7.175H22.506V3.186H63.4l6.144,7.792,6.144-7.792h40.89V7.175H78.685l-7.141,8.408V32.476H74.73V16.754l5.429-6.393h3.527v4.12L86.777,17.3h25.441l3.091-2.822v-4.12h4.453V0ZM52.209,13.076l-1.14,1.041H28.1l-1.14-1.041V10.514h25.25Zm29.242,92.387H57.63v-3.748H81.452Zm30.671-92.387-1.14,1.041H88.012l-1.14-1.041V10.514h25.25Z" transform="translate(-19.32)"/><path d="M251.436,360.391H248.25V349.912h3.186Zm0-13.665H248.25v-3.186h3.186Zm0-6.372H248.25v-3.186h3.186Z" transform="translate(-199.623 -265.549)"/></svg>