<svg xmlns="http://www.w3.org/2000/svg" width="260" height="56.631" viewBox="0 0 260 56.631"><g transform="translate(-168.979 -1076.971)"><path d="M478.7,1153.6a11.234,11.234,0,0,1-5.341-1.229,8.734,8.734,0,0,1-3.6-3.492,10.39,10.39,0,0,1-1.278-5.2v-11.17a10.145,10.145,0,0,1,1.278-5.151,8.8,8.8,0,0,1,3.6-3.45,11.264,11.264,0,0,1,5.341-1.229,11.477,11.477,0,0,1,5.32,1.186,8.7,8.7,0,0,1,3.581,3.344,9.614,9.614,0,0,1,1.278,5v.044a.477.477,0,0,1-.126.345.391.391,0,0,1-.293.129l-3.184.173c-.279,0-.419-.129-.419-.389v-.129a5.774,5.774,0,0,0-6.158-6.123,6.119,6.119,0,0,0-4.5,1.682,5.979,5.979,0,0,0-1.7,4.442v11.471a5.975,5.975,0,0,0,1.7,4.442,6.11,6.11,0,0,0,4.5,1.681,5.773,5.773,0,0,0,6.158-6.123v-.085c0-.26.14-.389.419-.389l3.184.172a.375.375,0,0,1,.419.43,9.741,9.741,0,0,1-1.278,5.025,8.774,8.774,0,0,1-3.581,3.385A11.275,11.275,0,0,1,478.7,1153.6Zm85.666,0a11.24,11.24,0,0,1-5.343-1.229,8.734,8.734,0,0,1-3.6-3.492,10.378,10.378,0,0,1-1.278-5.2v-11.17a10.133,10.133,0,0,1,1.278-5.151,8.8,8.8,0,0,1,3.6-3.45,11.271,11.271,0,0,1,5.343-1.229,11.475,11.475,0,0,1,5.319,1.186,8.689,8.689,0,0,1,3.581,3.344,9.605,9.605,0,0,1,1.278,5v.044a.472.472,0,0,1-.126.345.389.389,0,0,1-.292.129l-3.185.173c-.279,0-.418-.129-.418-.389v-.129a5.775,5.775,0,0,0-6.157-6.123,6.122,6.122,0,0,0-4.5,1.682,5.983,5.983,0,0,0-1.7,4.442v11.471a5.979,5.979,0,0,0,1.7,4.442,6.113,6.113,0,0,0,4.5,1.681,5.775,5.775,0,0,0,6.157-6.123v-.085c0-.26.139-.389.418-.389l3.185.172a.376.376,0,0,1,.418.43,9.732,9.732,0,0,1-1.278,5.025,8.768,8.768,0,0,1-3.581,3.385A11.273,11.273,0,0,1,564.368,1153.6Zm25.551,0a11.006,11.006,0,0,1-5.4-1.293,9.1,9.1,0,0,1-3.645-3.645,11.011,11.011,0,0,1-1.3-5.411v-10.263a10.9,10.9,0,0,1,1.3-5.392,9.119,9.119,0,0,1,3.645-3.62,12.008,12.008,0,0,1,10.849,0,9.12,9.12,0,0,1,3.645,3.62,10.872,10.872,0,0,1,1.3,5.392v10.263a10.986,10.986,0,0,1-1.3,5.411,9.1,9.1,0,0,1-3.645,3.645A11.083,11.083,0,0,1,589.92,1153.6Zm-175.56-.389H395.719a.375.375,0,0,1-.419-.43v-29.323a.376.376,0,0,1,.419-.432H414.36a.376.376,0,0,1,.419.432v2.717a.375.375,0,0,1-.419.43H399.489a.151.151,0,0,0-.168.173v9.272a.151.151,0,0,0,.168.173H409.71a.375.375,0,0,1,.419.43v2.716a.376.376,0,0,1-.419.433H399.489a.151.151,0,0,0-.168.172v9.486c0,.117.056.173.168.173H414.36a.376.376,0,0,1,.419.432v2.716A.375.375,0,0,1,414.36,1153.21Zm133.294,0h-3.185a.376.376,0,0,1-.418-.43v-29.323a.376.376,0,0,1,.418-.432h3.185c.279,0,.418.143.418.432v29.323A.375.375,0,0,1,547.654,1153.21Zm-108.663,0H420.769a.375.375,0,0,1-.419-.43v-29.323a.376.376,0,0,1,.419-.432h3.184a.376.376,0,0,1,.419.432v26c0,.117.056.173.168.173h14.452a.376.376,0,0,1,.419.432v2.716A.375.375,0,0,1,438.991,1153.21Zm24.3,0H444.646a.375.375,0,0,1-.419-.43v-29.323a.376.376,0,0,1,.419-.432h18.641a.376.376,0,0,1,.419.432v2.717a.375.375,0,0,1-.419.43H448.416a.151.151,0,0,0-.167.173v9.272a.151.151,0,0,0,.167.173h10.221a.375.375,0,0,1,.419.43v2.716a.376.376,0,0,1-.419.433H448.416a.15.15,0,0,0-.167.172v9.486c0,.117.056.173.167.173h14.871a.376.376,0,0,1,.419.432v2.716A.375.375,0,0,1,463.287,1153.21Zm58.687,0h-3.183a.375.375,0,0,1-.419-.43v-29.323a.376.376,0,0,1,.419-.432h11.268a8.817,8.817,0,0,1,4.419,1.079,7.486,7.486,0,0,1,2.953,3.018,9.305,9.305,0,0,1,1.047,4.485,8.424,8.424,0,0,1-1.529,5.11,7.484,7.484,0,0,1-4.252,2.823c-.112.058-.14.131-.084.216l6.074,12.936a.5.5,0,0,1,.042.216c0,.2-.112.3-.335.3h-3.309a.458.458,0,0,1-.461-.3l-5.865-12.892a.165.165,0,0,0-.167-.131h-6.032a.151.151,0,0,0-.168.172v12.722A.375.375,0,0,1,521.975,1153.21Zm-17.635,0h-3.184a.375.375,0,0,1-.419-.43v-25.96a.151.151,0,0,0-.167-.172H492.9a.376.376,0,0,1-.419-.433v-2.758a.376.376,0,0,1,.419-.432h20.065a.376.376,0,0,1,.419.432v2.758a.376.376,0,0,1-.419.433h-8.043a.151.151,0,0,0-.168.172v25.96A.375.375,0,0,1,504.339,1153.21Zm85.581-3.19a6.136,6.136,0,0,0,4.609-1.81,6.586,6.586,0,0,0,1.759-4.787v-10.48a6.723,6.723,0,0,0-1.759-4.852,6.1,6.1,0,0,0-4.609-1.832,6.026,6.026,0,0,0-4.587,1.832,6.762,6.762,0,0,0-1.737,4.852v10.48a6.624,6.624,0,0,0,1.737,4.787A6.065,6.065,0,0,0,589.92,1150.02ZM529.557,1126.6h-7a.151.151,0,0,0-.168.173v9.661a.151.151,0,0,0,.168.172h7a4.776,4.776,0,0,0,3.561-1.361,4.9,4.9,0,0,0,1.341-3.6,5.04,5.04,0,0,0-1.341-3.667A4.733,4.733,0,0,0,529.557,1126.6Z" transform="translate(-171.33 -34.603)"/><g transform="translate(168.979 1076.971)"><path d="M333.456,662.809a1.314,1.314,0,0,1,1.277,1.321A4.044,4.044,0,0,1,332,667.743a4.328,4.328,0,0,1-5.239-2.152c-.5-1.109-.5-2.757.946-2.782Q330.58,662.8,333.456,662.809Zm6.745-6.821a1.9,1.9,0,0,1,1.739,2.334,1.877,1.877,0,0,1-1.739,1.331q-9.62.056-19.241,0a1.9,1.9,0,0,1-1.681-2.5,1.875,1.875,0,0,1,1.681-1.16Q330.58,655.931,340.2,655.987Zm-3.559-21.119a1.894,1.894,0,0,1,1.61,2.653c-2.434,4.8-4.856,9.6-7.368,14.358a1.89,1.89,0,0,1-1.589.968c-5.8.08-11.6.036-17.4,0a1.879,1.879,0,0,1-1.808-1.809c-.06-9.433-.044-18.865,0-28.3a1.874,1.874,0,0,1,.979-1.605c6.21-3.231,12.451-6.4,18.677-9.6a1.873,1.873,0,0,1,1.65-.013q9.383,4.743,18.7,9.617a1.876,1.876,0,0,1,.979,1.605q.074,14.149,0,28.3a1.88,1.88,0,0,1-1.808,1.809c-4.814.03-6.868.03-11.682,0a1.9,1.9,0,0,1-1.739-2.333,1.876,1.876,0,0,1,1.761-1.332h9.8V623.875L330.58,615.22l-16.828,8.655v25.307h14.4l4.758-9.272c-2.594.892-5.185,1.792-7.782,2.674a1.893,1.893,0,0,1-2.359-1.306,1.857,1.857,0,0,1,.142-1.254q3.65-7.192,7.364-14.35a1.9,1.9,0,0,1,3.2-.065,1.87,1.87,0,0,1,.047,1.757l-5.269,10.269c2.594-.89,5.185-1.791,7.782-2.673A1.879,1.879,0,0,1,336.642,634.868Z" transform="translate(-310.048 -611.333)" fill="#ffdb31" fill-rule="evenodd"/></g></g></svg>