<svg xmlns="http://www.w3.org/2000/svg" width="108.755" height="108.753" viewBox="0 0 108.755 108.753"><path d="M138.042,90.56l-8.77,8.77-1.265-1.265,3.841-3.84-5.541-5.541L92.558,122.433l5.54,5.54,3.841-3.84L103.2,125.4l-8.771,8.77,8.745,8.745,34.865-34.865,34.864,34.865,8.745-8.745Zm-11.023,11.023-9.655,9.655-1.265-1.265,9.655-9.655Zm-29.956,20.85,29.243-29.244,1.035,1.036L98.1,123.468Zm7.128-.553,9.655-9.654,1.265,1.265-9.655,9.654Zm33.851-18.336-34.864,34.865-4.239-4.239,39.1-39.1,39.1,39.1-4.24,4.239Zm0,0" transform="translate(-72.897 -69.846)"/><path d="M381.4,130.655h8.555v15.92h3.186V127.469H378.211v7.365H381.4Zm0,0" transform="translate(-297.874 -100.393)"/><path d="M218.191,369.47H161.55V335.078h-3.186v37.579h63.013V335.078h-3.186Zm0,0" transform="translate(-124.726 -263.904)"/><path d="M22.743,25l3.561,3.56L28.557,26.3,25,22.743a11.1,11.1,0,0,0,2.111-5.081h5.03V14.476h-5.03A11.1,11.1,0,0,0,25,9.394l3.56-3.561L26.3,3.581l-3.561,3.56a11.1,11.1,0,0,0-5.081-2.11V0H14.475V5.031a11.1,11.1,0,0,0-5.082,2.11L5.833,3.58,3.58,5.833l3.56,3.56a11.086,11.086,0,0,0-2.11,5.082H0v3.186H5.03a11.087,11.087,0,0,0,2.11,5.081L3.579,26.3l2.254,2.253L9.393,25a11.094,11.094,0,0,0,5.082,2.109v5.031H17.66V27.106A11.094,11.094,0,0,0,22.743,25ZM8.1,16.069a7.965,7.965,0,1,1,7.965,7.965A7.974,7.974,0,0,1,8.1,16.069Zm0,0" transform="translate(0 0)"/><path d="M97.984,114.817V118A19.776,19.776,0,0,0,117.739,98.25h-3.186A16.586,16.586,0,0,1,97.984,114.817Zm0,0" transform="translate(-77.171 -77.381)"/><path d="M97.984,109.036v3.186A13.989,13.989,0,0,0,111.958,98.25h-3.186A10.8,10.8,0,0,1,97.984,109.036Zm0,0" transform="translate(-77.171 -77.38)"/><path d="M227.889,260.547,210.4,290.834h13.332l-9.065,15.7H231.7l17.487-30.287H235.852l9.066-15.7Zm15.777,18.887L229.86,303.35h-9.671l9.065-15.7H215.921l13.808-23.915H239.4l-9.065,15.7Zm0,0" transform="translate(-165.711 -205.204)"/><path d="M392.67,226.474l-13.039-13.04,2.253-2.253,13.039,13.04Zm-14.541-14.542-2.253-2.253,2.253-2.253,2.253,2.253Zm-3.755-3.755-2.253-2.253,2.254-2.253,2.253,2.253Zm0,0" transform="translate(-293.078 -160.41)"/><path d="M418.209,370.967h-3.186v-19.98h3.186Zm0-22.1h-3.186v-3.186h3.186Zm0-5.31h-3.186v-3.186h3.186Zm0,0" transform="translate(-326.867 -268.069)"/><path d="M60.334,66.172a5.823,5.823,0,0,1-4.13-1.708l2.253-2.253a2.655,2.655,0,1,0,3.755-3.755L64.464,56.2a5.838,5.838,0,0,1-4.13,9.968Zm0,0" transform="translate(-44.265 -44.265)"/><path d="M288.162,381.289,285.4,379.7l4.205-7.283,2.759,1.593Zm5.266-9.123-2.759-1.593,1.593-2.759,2.759,1.593Zm2.655-4.6-2.759-1.593,1.593-2.76,2.759,1.593Zm0,0" transform="translate(-224.78 -286.064)"/></svg>