<svg xmlns="http://www.w3.org/2000/svg" width="17.47" height="25" viewBox="0 0 17.47 25">
  <path id="tel" d="M90.365-1H90.5l.073,0h0a3.892,3.892,0,0,1,.671.1A3.464,3.464,0,0,1,94.3,2.546V20.538A3.464,3.464,0,0,1,90.839,24H80.3a3.464,3.464,0,0,1-3.464-3.464V2.546A3.464,3.464,0,0,1,80.05-.909a3.894,3.894,0,0,1,.606-.083h0l.073,0h9.636ZM92.3,18.477H78.931v1.6a1.953,1.953,0,0,0,1.951,1.951h9.464A1.953,1.953,0,0,0,92.3,20.076ZM90.346.953H80.828a1.954,1.954,0,0,0-1.9,1.95V16.471H92.3V2.9A1.954,1.954,0,0,0,90.4.954h-.054ZM86.589,4.423H84.638a.976.976,0,1,1,0-1.951h1.951a.976.976,0,1,1,0,1.951Z" transform="translate(-76.833 0.998)" fill="#ffdb31" fill-rule="evenodd"/>
</svg>
