<svg xmlns="http://www.w3.org/2000/svg" width="95.132" height="105.703" viewBox="0 0 95.132 105.703"><g transform="translate(-5 -2)"><path d="M6.762,39A1.762,1.762,0,0,0,5,40.758V47.8a1.762,1.762,0,0,0,1.762,1.762h3.523V90.086H8.523a1.762,1.762,0,0,0-1.762,1.762v7.047a1.762,1.762,0,0,0,1.762,1.762h8.809v5.285a1.762,1.762,0,0,0,1.762,1.762H40.234A1.762,1.762,0,0,0,42,105.941v-5.285H63.136v5.285A1.762,1.762,0,0,0,64.9,107.7H86.039a1.762,1.762,0,0,0,1.762-1.762v-5.285h8.809a1.762,1.762,0,0,0,1.762-1.762V91.847a1.762,1.762,0,0,0-1.762-1.762H94.847V49.566h3.523a1.762,1.762,0,0,0,1.762-1.762V40.758A1.762,1.762,0,0,0,98.371,39H86.039V35.472h7.047V31.949H89.562V26.664A1.762,1.762,0,0,0,87.8,24.9H86.039V21.379h7.047V17.855H89.562V12.57A1.762,1.762,0,0,0,87.8,10.809H86.039V3.762A1.762,1.762,0,0,0,84.277,2H77.23a1.762,1.762,0,0,0-1.762,1.762v7.047H73.707a1.762,1.762,0,0,0-1.762,1.762v5.285H68.422v3.523h7.047V24.9H73.707a1.762,1.762,0,0,0-1.762,1.762v5.285H68.422v3.523h7.047V39H57.851V35.472H64.9V31.949H61.375V26.664A1.762,1.762,0,0,0,59.613,24.9H57.851V21.379H64.9V17.855H61.375V12.57a1.762,1.762,0,0,0-1.762-1.762H57.851V3.762A1.762,1.762,0,0,0,56.09,2H49.043a1.762,1.762,0,0,0-1.762,1.762v7.047H45.519a1.762,1.762,0,0,0-1.762,1.762v5.285H40.234v3.523h7.047V24.9H45.519a1.762,1.762,0,0,0-1.762,1.762v5.285H40.234v3.523h7.047V39H29.664V35.472h7.047V31.949H33.187V26.664A1.762,1.762,0,0,0,31.426,24.9H29.664V21.379h7.047V17.855H33.187V12.57a1.762,1.762,0,0,0-1.762-1.762H29.664V3.762A1.762,1.762,0,0,0,27.9,2H20.855a1.762,1.762,0,0,0-1.762,1.762v7.047H17.332A1.762,1.762,0,0,0,15.57,12.57v5.285H12.047v3.523h7.047V24.9H17.332a1.762,1.762,0,0,0-1.762,1.762v5.285H12.047v3.523h7.047V39Zm31.711,65.183H20.855v-3.523H38.472Zm45.8,0H66.66v-3.523H84.277Zm10.57-7.047H10.285V93.609H94.847ZM13.809,90.086V49.566H91.324V90.086ZM78.992,5.523h3.523v5.285H78.992Zm-3.523,8.809h10.57v3.523H75.468Zm7.047,7.047V24.9H78.992V21.379Zm-7.047,7.047h10.57v3.523H75.468Zm7.047,7.047V39H78.992V35.472ZM50.8,5.523h3.523v5.285H50.8Zm-3.523,8.809h10.57v3.523H47.281Zm7.047,7.047V24.9H50.8V21.379Zm-7.047,7.047h10.57v3.523H47.281Zm7.047,7.047V39H50.8V35.472ZM22.617,5.523h3.523v5.285H22.617Zm-3.523,8.809h10.57v3.523H19.094Zm7.047,7.047V24.9H22.617V21.379Zm-7.047,7.047h10.57v3.523H19.094Zm7.047,7.047V39H22.617V35.472Zm70.468,7.047v3.523H8.523V42.519Z" transform="translate(0 0)"/><path d="M60.519,31H21.762A1.762,1.762,0,0,0,20,32.762V62.711a1.762,1.762,0,0,0,1.762,1.762H60.519a1.762,1.762,0,0,0,1.762-1.762V32.762A1.762,1.762,0,0,0,60.519,31ZM58.758,60.949H23.523V34.523H58.758Z" transform="translate(11.426 22.09)"/><path d="M25.174,48.079a1.762,1.762,0,0,0,1.586,1.015h7.047v5.285a1.762,1.762,0,0,0,2.907,1.337l12.332-10.57a1.762,1.762,0,0,0-1.145-3.1H42.615l3.171-4.228A1.762,1.762,0,0,0,44.376,35H35.568a1.762,1.762,0,0,0-1.355.632L25.4,46.2A1.762,1.762,0,0,0,25.174,48.079Zm11.22-9.556h4.459l-3.171,4.228a1.762,1.762,0,0,0,1.409,2.819h4.052L37.33,50.549V47.332a1.762,1.762,0,0,0-1.762-1.762H30.521Z" transform="translate(15.237 25.136)"/><path d="M24,35h3.523v3.523H24Z" transform="translate(14.472 25.136)"/><path d="M38,44h3.523v3.523H38Z" transform="translate(25.136 31.992)"/><path d="M12,31h3.523V64.473H12Z" transform="translate(5.332 22.09)"/><path d="M16,31h3.523V64.473H16Z" transform="translate(8.379 22.09)"/><path d="M46,31h3.523V64.473H46Z" transform="translate(31.23 22.09)"/><path d="M50,31h3.523V64.473H50Z" transform="translate(34.277 22.09)"/></g></svg>