<svg xmlns="http://www.w3.org/2000/svg" width="82.006" height="108.789" viewBox="0 0 82.006 108.789"><path d="M132.871,52.97l-2.145.6L128.97,46.84l-3.083.8,1.77,6.791-15.713,4.419-1.635-5.132-4.668,0,0-5.013a10.088,10.088,0,0,0,0-19.921V3.181l3.986,0L115.9,9.359l9.152,35.1,3.083-.8L118.763,7.7,110.931,0H97.161L89.329,7.7,85.956,20.641l3.083.8L92.191,9.359l6.276-6.174,3.986,0v25.6a10.088,10.088,0,0,0,0,19.921v5.013l-4.669,0-1.635,5.132L80.436,54.435l7.773-29.8-3.083-.8L77.367,53.573l-2.146-.6L63.043,96.285l3.21,8.24,15.162,4.263,7.034-5.36,12.179-43.316-1.411-.4.9-2.81h7.866l.9,2.81-1.411.4,12.179,43.316,7.034,5.36,15.162-4.263,3.21-8.24ZM77.427,56.9,96.7,62.319,93.687,73.027,74.416,67.609ZM71.675,77.357l1.878-6.681,19.271,5.418-1.878,6.681Zm18.408,8.485-1.878,6.681L68.934,87.1l1.879-6.681Zm-9.336,19.449-12.1-3.4L66.4,96.122l1.673-5.95L87.343,95.59l-1.673,5.95Zm16.4-66.548a6.9,6.9,0,1,1,6.9,6.9A6.9,6.9,0,0,1,97.147,38.743ZM137.28,80.424l1.879,6.681-19.271,5.418-1.878-6.681Zm-20.133,2.351-1.878-6.681,19.271-5.418,1.878,6.681Zm16.53-15.166-19.271,5.418-3.011-10.708L130.666,56.9Zm5.771,34.28-12.1,3.4-4.922-3.751-1.673-5.95,19.271-5.418,1.673,5.95Z" transform="translate(-63.043 0)"/><path d="M290.046,75.831l-2.4-9.2,3.083-.8,2.4,9.2Zm-3.2-12.283-.8-3.083,3.083-.8.8,3.083Zm-1.608-6.166-.8-3.083,3.083-.8.8,3.083Z" transform="translate(-237.406 -42.132)"/></svg>