<svg xmlns="http://www.w3.org/2000/svg" width="97.2" height="106.036" viewBox="0 0 97.2 106.036"><path d="M12.767,30.276v3.535h10.6V30.276H19.836V26.742h3.535V23.207H19.836V19.673H35.742v3.535H33.974A1.767,1.767,0,0,0,32.207,24.8L25.3,97.433H11v10.6H85.225v-10.6h-14.3L64.018,24.807a1.767,1.767,0,0,0-1.767-1.591H60.484V19.673H76.389v3.535H72.854v3.535h3.535v3.535H72.854v3.535h10.6V30.276H79.923V26.742h3.535V23.207H79.923V16.138H73.586L66.517,9.069H60.484v-5.3A1.767,1.767,0,0,0,58.716,2H37.509a1.767,1.767,0,0,0-1.767,1.767v5.3H29.708l-7.069,7.069H16.3v7.069H12.767v3.535H16.3v3.535ZM60.484,12.6h4.57l3.535,3.535h-8.1ZM34.264,40.578l10.323,5.977L33.059,53.228Zm20.82-5H41.141l6.972-2.87ZM42.908,26.742H53.317l-5.2,2.142Zm14.53,12.371-9.326,5.4-9.326-5.4ZM35.878,79.76H60.344L48.113,86.141ZM62.111,97.433h-28l14-7.3ZM35.326,76.225l12.786-7.306L60.9,76.225Zm1.767-17.673H59.132l-11.019,6.3Zm-.074-3.535L48.113,48.6l11.093,6.422Zm-4.595,4.932,12.132,6.933-13.53,7.732Zm-2,20.949,13.868,7.235L28.973,96.127Zm51.267,20.067V104.5H14.535v-3.535ZM67.252,96.127,51.933,88.135,65.8,80.9ZM63.806,59.951l1.4,14.668-13.53-7.732Zm-.64-6.716L51.638,46.562l10.323-5.977ZM60.719,27.518l.649,6.823-8.612-3.547ZM39.276,5.535H56.949V9.069H39.276Zm0,7.069H56.949v3.535H39.276Zm0,7.069H56.949v3.535H39.276ZM43.47,30.8l-8.612,3.545.649-6.825ZM31.172,12.6h4.57v3.535h-8.1Z" transform="translate(-0.396 -2)"/><path d="M14.059,28.908,5.223,44.814A1.767,1.767,0,0,0,6.767,47.44h7.069v10.6a1.767,1.767,0,0,0,3.259.949l12.371-19.44a1.767,1.767,0,0,0-1.492-2.716H22.259l3.7-6.159A1.767,1.767,0,0,0,24.44,28H15.6a1.767,1.767,0,0,0-1.545.908Zm7.26,2.626-3.7,6.159a1.767,1.767,0,0,0,1.515,2.677h5.616l-7.384,11.6v-6.3A1.767,1.767,0,0,0,15.6,43.905H9.772l6.871-12.371Z" transform="translate(-5 17.949)"/><path d="M70.523,31.754a1.767,1.767,0,0,0-1.548-.917H63.259l3.7-6.159A1.767,1.767,0,0,0,65.44,22H56.6a1.767,1.767,0,0,0-1.545.908L46.223,38.814a1.767,1.767,0,0,0,1.545,2.626h7.069v10.6a1.767,1.767,0,0,0,3.259.949l12.371-19.44A1.767,1.767,0,0,0,70.523,31.754ZM58.371,45.975v-6.3A1.767,1.767,0,0,0,56.6,37.905H50.772l6.871-12.371h4.676l-3.7,6.159a1.767,1.767,0,0,0,1.515,2.677h5.616Z" transform="translate(26.458 13.345)"/></svg>