<svg xmlns="http://www.w3.org/2000/svg" width="108.649" height="106.036" viewBox="0 0 108.649 106.036"><path d="M198.845,201.658l-7.332,23.406H200l-4.847,13.679h7.656l16.8-25.216H208.078l3.761-11.87H198.845Zm14.813,15.056-12.553,18.843h-1.441l4.847-13.679H195.85l5.336-17.034h6.3l-3.761,11.87h9.933Z" transform="translate(-150.833 -160.13)"/><path d="M85.079,46.848l-2.82,1.483,23.2,44.11v9.354L95.981,109H12.667l-9.481-7.205V92.441L46.9,9.336H61.746l18.96,36.042,2.82-1.483L63.67,6.15H44.978L0,91.654v11.721l11.594,8.811h85.46l11.594-8.811V91.654Z" transform="translate(0 -6.15)"/><path d="M73.16,102.879,70.34,101.4l-18,34.217v3.463l4.221,3.21h77.971l4.221-3.21v-3.463L98.178,58.48H92.915L71.893,98.443l2.82,1.483,20.126-38.26h1.415L135.567,136.4v1.1l-2.109,1.6H57.635l-2.109-1.6v-1.1Z" transform="translate(-41.222 -47.364)"/><path d="M208.106,411.2H204.92v-3.186h3.186Zm-6.372,0h-3.186v-3.186h3.186Zm-6.372,0H172.917v-3.186h22.445Z" transform="translate(-136.187 -322.656)"/></svg>